<svg width="539" height="479" viewBox="0 0 539 479" fill="none" xmlns="http://www.w3.org/2000/svg">
<path d="M139.245 410.58C141.15 402.826 144.096 395.506 147.348 388.201C146.881 387.977 146.54 387.784 146.162 387.639C143.324 386.532 140.826 384.959 138.796 382.888C137.844 381.94 136.838 381.716 135.508 381.716C102.863 381.7 70.2354 381.651 37.5899 381.603C25.5523 381.587 13.5146 381.507 1.47693 381.459C0.129433 381.459 0.0036667 381.395 0.0036667 380.223C-0.0143 377.606 0.0395995 374.973 0.0395995 372.356C0.0395995 358.919 0.0216328 345.498 0.0395995 332.061C0.0395995 323.761 0.0755334 315.477 0.0935 307.178C0.0935 304.834 0.219267 304.721 2.80647 304.721C31.1399 304.769 59.4554 304.818 87.7888 304.85C90.7892 304.85 93.7717 304.85 96.7721 304.866C97.1135 304.866 97.4549 304.866 97.9939 304.866C97.7603 304.32 97.6166 303.951 97.4549 303.581C96.5206 301.623 95.4606 299.696 94.67 297.674C92.8734 293.098 93.4842 288.748 96.4308 284.638C97.922 282.551 99.7187 280.689 101.695 278.971C102.072 278.634 102.486 278.329 102.935 277.976C102.647 277.398 102.414 276.916 102.162 276.45C97.1854 267.155 92.1906 257.844 87.2139 248.549C86.8545 247.875 86.5132 247.184 86.2437 246.478C85.9921 245.804 86.2257 245.45 86.9983 245.29C87.6271 245.161 88.3098 245.113 88.9566 245.113C98.7844 245.129 108.594 245.145 118.422 245.161C126.866 245.178 135.311 245.21 143.755 245.226C144.114 245.226 144.456 245.194 144.743 245.178C144.887 245.033 144.995 244.969 145.031 244.873C147.223 238.018 151.319 232.078 156.17 226.523C163.949 217.629 173.22 210.196 183.839 204.08C184.126 203.919 184.414 203.726 184.773 203.502C184.593 203.341 184.503 203.213 184.36 203.165C175.143 200.066 169.178 194.126 166.303 185.859C162.476 174.926 164.65 164.844 172.609 155.806C173.274 155.051 174.029 154.361 174.819 153.703C175.322 153.269 175.412 152.852 175.233 152.274C173.346 146.382 172.699 140.314 171.999 134.245C171.442 129.397 171.226 124.533 171.424 119.652C171.747 111.609 172.699 103.647 175.682 95.989C178.413 88.9574 182.635 82.7446 188.887 77.7358C192.049 75.1993 195.571 73.1925 199.811 72.4701C204.626 71.6513 207.429 71.5871 212.172 73.3691C212.999 72.8233 213.879 72.2614 214.723 71.6674C218.694 68.9061 223.257 67.4131 228.162 66.6425C233.139 65.872 238.152 65.6954 243.2 66.0486C248.86 66.4338 254.034 68.1516 258.939 70.6239C266.252 74.3002 271.911 79.5338 276.439 85.7788C281.038 92.12 284.093 99.0232 285.692 106.488C287.255 113.777 287.309 121.049 286.446 128.37C285.979 132.399 285.314 136.429 284.721 140.506C285.961 141.357 287.291 142.256 288.584 143.187C290.704 144.712 292.465 146.527 293.866 148.614C295.466 150.99 297.136 153.349 298.646 155.774C303.64 163.865 305.76 172.518 304.629 181.733C304.072 186.292 302.598 190.643 300.083 194.656C298.286 197.53 295.897 200.002 292.824 201.864C292.447 202.089 292.07 202.346 291.513 202.715C303.568 208.157 313.917 215.382 323.026 224.259C323.026 223.697 323.026 223.136 323.026 222.574C322.865 206.247 322.721 189.936 322.559 173.609C322.505 167.509 322.398 161.408 322.344 155.308C322.326 153.253 322.487 153.109 324.751 153.093C328.83 153.077 332.89 153.077 336.969 153.06C337.561 153.06 338.136 153.06 338.909 153.06C338.909 152.466 338.909 152.001 338.909 151.535C338.963 147.57 339.035 143.621 339.089 139.656C339.125 137.713 339.268 137.569 341.442 137.569C352.887 137.552 364.314 137.552 375.759 137.552C397.085 137.536 418.393 137.52 439.72 137.52C440.025 137.52 440.313 137.52 440.618 137.52C442.756 137.552 443.008 137.777 443.026 139.639C443.044 141.887 443.044 144.135 443.062 146.382C443.116 163.512 443.169 180.625 443.223 197.754C443.277 217.18 443.331 236.605 443.385 256.03C443.385 257.202 443.421 258.39 443.403 259.562C443.367 261.023 443.008 261.344 441.373 261.344C436.935 261.328 432.515 261.28 428.077 261.247C427.485 261.247 426.892 261.247 426.191 261.247C426.155 261.729 426.083 262.13 426.083 262.532C426.047 266.176 426.029 269.804 425.993 273.448C425.993 273.818 426.011 274.203 425.975 274.572C425.886 275.648 425.67 275.873 424.43 275.905C422.4 275.953 420.352 275.953 418.322 275.953C394.731 275.985 371.123 276.017 347.533 276.033C346.886 276.033 346.239 276.033 345.521 276.033C345.593 277.478 345.646 278.762 345.736 280.03C346.257 286.661 346.149 293.291 345.916 299.921C345.646 307.467 344.766 314.964 343.221 322.397C341.766 329.38 340.328 336.38 338.783 343.347C336.088 355.548 329.746 366.143 320.816 375.583C318.104 378.457 315.013 380.977 311.546 383.128C311.204 383.337 310.863 383.562 310.522 383.787C310.432 383.851 310.378 383.947 310.18 384.172C315.121 392.44 319.972 400.82 323.817 409.794C324.5 409.81 325.2 409.826 325.901 409.826C350.695 409.746 375.489 409.649 400.283 409.553C407.703 409.521 415.141 409.505 422.562 409.473C423.101 409.473 423.658 409.425 424.161 409.537C424.43 409.585 424.79 409.938 424.808 410.147C424.826 410.372 424.484 410.757 424.233 410.821C423.658 410.95 423.047 410.918 422.454 410.918C410.722 410.966 398.971 411.014 387.239 411.062C373.171 411.11 359.085 411.142 345.018 411.191C316.63 411.287 288.243 411.399 259.856 411.512C246.255 411.56 232.672 411.64 219.071 411.688C205.057 411.736 191.043 411.785 177.029 411.817C165.351 411.849 153.673 411.881 141.994 411.929C125.052 411.993 108.109 412.073 91.1665 412.138C77.1525 412.202 63.1385 412.266 49.1245 412.33C44.5071 412.346 39.9076 412.378 35.2902 412.395C34.8051 412.395 34.302 412.427 33.8708 412.298C33.6013 412.218 33.2779 411.849 33.2959 411.624C33.2959 411.383 33.6373 411.03 33.9068 410.966C34.4098 410.837 34.9668 410.869 35.5058 410.869C41.0216 410.853 46.5194 410.869 52.0351 410.837C70.2354 410.773 88.4536 410.677 106.654 410.613C116.841 410.58 127.01 410.548 137.197 410.516C137.862 410.58 138.509 410.58 139.245 410.58ZM231.792 135.417C232.367 135.433 232.906 135.353 233.139 134.791C233.768 134.534 234.415 134.277 235.044 134.021C240.056 131.982 245.051 129.943 250.064 127.904C250.441 127.744 250.818 127.583 251.214 127.455C251.771 127.278 252.184 127.503 252.346 127.968C252.471 128.305 252.525 128.707 252.453 129.06C251.609 133.025 250.19 136.814 247.566 140.169C245.931 142.256 243.973 144.038 241.386 145.194C237.936 146.735 234.451 146.767 231.073 145.098C229.779 144.456 228.576 143.621 227.498 142.722C226.545 141.935 225.809 140.924 224.946 140.041C224.695 139.784 224.3 139.447 223.994 139.463C222.88 139.559 221.712 139.367 220.562 139.896C220.742 141.759 220.904 143.621 221.101 145.467C221.227 146.559 221.245 146.527 220.131 146.976C219.431 147.265 218.712 147.586 218.191 148.068C216.933 149.272 217.526 150.733 219.359 151.022C219.754 151.086 220.185 151.054 220.598 151.006C220.886 150.973 221.173 150.861 221.461 150.797C221.982 150.701 222.485 150.749 222.629 151.262C222.772 151.76 222.341 152.081 221.856 152.178C221.101 152.322 220.329 152.45 219.574 152.45C218.011 152.434 216.772 151.856 216.143 150.524C215.532 149.191 215.981 148.004 217.023 146.992C217.382 146.639 217.832 146.366 218.263 146.077C218.604 145.868 218.981 145.708 219.413 145.483C219.251 143.733 219.089 142.015 218.928 140.153C217.58 140.426 216.664 140.795 215.909 141.807C212.226 146.719 205.956 148.854 199.793 146.43C199.506 146.318 199.164 146.334 198.679 146.254C199.218 147.586 199.613 148.758 200.17 149.882C201.787 153.157 203.44 156.416 205.111 159.675C206.099 161.585 207.411 163.303 208.974 164.86C210.591 166.465 212.477 167.718 214.741 168.585C218.389 169.981 222.215 170.463 226.096 170.704C229.51 170.912 232.924 170.688 236.301 170.302C239.014 169.997 241.709 169.468 244.225 168.44C244.332 167.926 244.44 167.461 244.53 166.979C245.5 161.697 247.512 156.737 250.387 152.081C252.256 149.047 254.519 146.205 256.622 143.268C256.873 142.93 257.107 142.577 257.358 142.24C256.496 141.903 255.723 141.614 254.969 141.277C254.519 141.084 254.16 140.747 254.412 140.249C254.663 139.752 255.148 139.768 255.633 139.961C255.903 140.057 256.172 140.201 256.442 140.314C257.969 140.924 259.568 141.004 261.185 140.715C266.503 139.768 271.139 134.855 270.546 129.509C270.204 126.475 267.725 124.147 264.329 123.746C260.987 123.345 258.221 124.356 255.867 126.427C255.544 126.7 255.22 126.973 254.897 127.23C254.627 127.053 254.448 126.973 254.358 126.861C252.687 124.645 250.315 123.248 247.674 122.157C246.111 121.499 244.512 120.889 242.895 120.311C238.511 118.737 234.235 116.939 230.211 114.724C224.048 111.336 218.694 107.243 215.119 101.528C214.975 101.287 214.777 101.078 214.544 100.757C214.328 101.11 214.202 101.287 214.112 101.479C212.172 105.846 209.405 109.763 206.135 113.407C204.303 115.462 202.47 117.501 200.709 119.588C198.607 122.109 197.152 124.886 196.577 128.016C196.164 130.296 195.984 132.56 196.146 134.791C196.29 134.904 196.325 134.952 196.379 134.968C202.326 136.573 208.273 138.195 214.238 139.768C214.616 139.864 215.083 139.832 215.442 139.72C216.502 139.399 217.544 139.013 218.64 138.628C218.64 138.098 218.658 137.568 218.64 137.039C218.622 136.718 218.55 136.397 218.514 136.075C218.442 135.305 218.73 134.823 219.269 134.839C219.97 134.871 220.113 135.337 220.149 135.851C220.185 136.284 220.203 136.702 220.257 137.135C220.293 137.488 220.383 137.841 220.455 138.243C221.443 138.179 222.341 138.082 223.222 138.082C224.569 138.082 225.791 137.729 226.995 137.215C228.594 136.621 230.211 136.043 231.792 135.417ZM146.701 245.242C147.528 245.242 148.121 245.242 148.696 245.242C153.906 245.242 159.116 245.29 164.327 245.242C165.638 245.226 166.411 245.579 166.968 246.671C168.89 250.411 170.885 254.12 172.861 257.844C175.736 263.254 178.61 268.664 181.485 274.074C182.096 275.214 182.114 275.23 183.533 275.118C184.665 275.038 185.797 274.765 186.911 274.797C190.756 274.877 194.547 274.315 198.374 274.107C199.182 274.058 199.703 273.802 200.08 273.159C200.691 272.116 201.356 271.105 202.021 270.077C204.141 266.722 206.279 263.383 208.381 260.027C208.956 259.096 209.675 258.534 210.95 258.711C211.597 258.807 212.262 258.727 212.927 258.711C215.388 258.631 217.832 258.518 220.293 258.486C221.802 258.47 222.233 259.144 221.551 260.316C221.443 260.509 221.299 260.686 221.191 260.862C218.371 265.325 215.532 269.804 212.729 274.283C212.424 274.781 212.154 275.295 211.831 275.856C212.37 276.161 212.765 276.386 213.16 276.595C215.388 277.783 217.364 279.228 219.143 280.913C221.748 283.37 223.904 286.131 225.952 288.972C226.204 289.31 226.491 289.631 226.779 289.968C228.055 289.518 229.204 289.021 230.39 288.7C232.043 288.266 233.732 287.833 235.439 287.672C237.487 287.463 239.356 287.929 240.613 289.615C240.865 289.952 241.296 290.209 241.673 290.465C246.327 293.564 251.034 296.598 255.651 299.745C266.557 307.178 277.014 315.092 286.913 323.601C287.165 323.809 287.434 323.986 287.65 324.146C287.83 324.098 287.902 324.098 287.937 324.05C288.027 323.922 288.117 323.777 288.189 323.633C291.243 317.404 292.86 310.838 293.543 304.095C293.777 301.912 293.974 299.729 294.046 297.529C294.136 294.479 294.244 291.429 294.1 288.395C293.938 285.039 293.543 281.684 293.184 278.329C292.896 275.616 292.591 272.903 292.178 270.205C291.675 266.979 291.064 263.768 290.489 260.541C290.219 258.952 290.076 257.346 289.339 255.853C289.249 255.661 289.195 255.388 289.267 255.227C289.411 254.97 289.644 254.697 289.914 254.585C290.058 254.537 290.507 254.778 290.579 254.954C290.992 256.062 291.405 257.186 291.693 258.326C291.998 259.465 292.16 260.637 292.375 261.793C292.753 263.8 293.22 265.791 293.507 267.797C293.956 270.864 294.226 273.962 294.693 277.044C295.466 282.085 295.825 287.158 295.825 292.247C295.807 296.839 295.645 301.43 295.016 306.022C294.226 311.673 292.914 317.195 290.525 322.477C290.058 323.504 289.626 324.548 289.195 325.511C289.411 325.736 289.501 325.88 289.626 325.993C297.011 332.559 303.928 339.526 310.953 346.413C311.402 346.847 311.851 347.296 312.192 347.794C312.336 348.003 312.336 348.452 312.175 348.645C311.887 349.014 311.42 348.918 311.079 348.661C310.719 348.388 310.396 348.067 310.072 347.746C305.006 342.817 299.993 337.856 294.891 332.96C287.003 325.399 278.541 318.367 269.701 311.705C260.736 304.946 251.447 298.525 241.979 292.344C241.799 292.231 241.583 292.167 241.404 292.087C241.278 292.231 241.152 292.312 241.152 292.392C240.883 294.511 239.949 296.405 238.781 298.236C237.236 300.66 235.403 302.891 233.355 304.994C227.408 311.095 220.616 316.28 212.747 320.31C211.04 321.177 209.243 321.915 207.375 322.766C207.662 323.36 207.932 323.938 208.237 324.5C211.417 330.488 214.58 336.492 217.76 342.48C218.137 343.202 218.586 343.893 218.101 344.744C217.993 344.952 218.137 345.37 218.317 345.61C218.568 345.964 218.963 346.253 219.287 346.542C222.988 349.833 226.995 352.803 231.091 355.692C234.666 358.213 238.332 360.605 241.997 363.013C249.561 367.99 257.089 373.03 264.743 377.895C271.336 382.085 278.613 385.039 286.554 386.612C292.196 387.72 297.711 387.511 303.119 385.617C307.485 384.092 311.24 381.748 314.726 379.019C319.128 375.567 322.685 371.489 325.901 367.139C331.291 359.818 335.226 351.968 337.13 343.347C338.532 336.957 339.969 330.568 341.281 324.146C342.376 318.784 343.329 313.39 343.76 307.948C344.137 303.26 344.371 298.557 344.479 293.853C344.568 290.321 344.371 286.789 344.281 283.273C344.137 277.606 343.508 271.971 342.502 266.369C340.724 256.576 337.274 247.281 331.812 238.612C325.703 228.931 317.708 220.728 307.97 213.824C302.742 210.116 297.065 207.066 291.297 204.128C290.381 203.662 289.626 203.646 288.62 204.015C285.907 204.979 283.122 205.846 280.338 206.632C275.576 207.949 270.797 207.997 266.036 206.568C265.713 206.472 265.353 206.456 264.958 206.391C264.904 206.777 264.832 207.082 264.832 207.403C264.527 213.343 263.718 219.218 262.335 225.046C261.401 228.963 260.502 232.896 259.586 236.813C259.478 237.279 259.478 237.793 259.299 238.226C259.173 238.531 258.849 238.868 258.526 238.981C258.346 239.045 257.879 238.724 257.718 238.499C257.322 237.905 256.963 237.279 256.675 236.637C254.052 230.649 250.621 225.014 247.207 219.363C243.704 213.567 238.996 208.591 234.145 203.71C232.798 202.346 231.828 202.314 230.049 203.309C227.48 204.722 225.252 206.504 223.24 208.494C216.718 214.916 210.807 221.787 204.842 228.626C204.626 228.883 204.428 229.22 204.123 229.316C203.71 229.461 203.171 229.557 202.793 229.429C202.542 229.348 202.362 228.835 202.362 228.514C202.362 227.936 202.542 227.358 202.65 226.78C204.213 217.79 206.441 208.928 209.369 200.227C209.747 199.119 210.142 198.011 210.555 196.807C209.836 196.807 209.226 196.743 208.651 196.823C207.052 197.048 205.453 197.273 203.889 197.61C197.493 199.023 191.654 201.607 186.084 204.69C174.316 211.224 164.219 219.427 155.954 229.381C152.523 233.522 149.558 237.905 147.618 242.802C147.258 243.492 147.043 244.262 146.701 245.242ZM324.033 154.634C324.033 155.388 324.033 155.918 324.033 156.448C324.14 166.449 324.266 176.451 324.356 186.453C324.482 199.456 324.607 212.46 324.715 225.447C324.715 226.234 324.949 226.86 325.488 227.486C329.512 232.174 332.998 237.135 335.873 242.448C340.436 250.893 343.203 259.819 344.586 269.114C344.856 270.912 345.089 272.694 345.359 274.604C371.68 274.54 397.929 274.46 424.287 274.396C424.466 234.293 424.718 194.319 424.754 154.2C391.138 154.361 357.684 154.505 324.033 154.634ZM87.9505 246.51C95.5684 260.718 103.042 274.636 110.535 288.603C111.092 288.523 111.559 288.475 112.008 288.378C116.194 287.447 120.344 286.484 124.549 285.601C125.698 285.36 126.92 285.232 128.088 285.328C131.071 285.569 133.083 287.913 132.58 290.498C132.436 291.236 131.969 291.942 131.627 292.713C132.023 292.825 132.454 292.89 132.795 293.082C133.748 293.612 134.754 294.11 135.58 294.784C136.64 295.651 136.874 296.791 136.299 298.027C136.101 298.46 135.904 298.878 135.706 299.327C137.053 300.082 138.311 300.804 138.976 302.088C139.694 303.453 138.994 304.641 138.347 305.636C139.443 306.535 140.521 307.226 141.347 308.109C142.605 309.457 142.641 310.934 141.563 312.411C141.078 313.069 140.485 313.728 139.784 314.193C138.491 315.044 137.143 315.879 135.688 316.473C133.586 317.34 131.358 317.998 129.184 318.736C128.519 318.961 127.854 319.154 127.046 319.395C131.304 327.341 135.508 335.175 139.712 343.01C165.261 343.251 190.684 343.475 216.143 343.7C215.729 342.127 166.644 249.255 164.938 246.799C139.425 246.703 113.876 246.606 87.9505 246.51ZM308.833 384.846C308.204 385.135 307.683 385.376 307.144 385.617C302.095 387.928 296.777 389.181 291.064 388.731C288.081 388.49 285.135 388.025 282.278 387.222C275.091 385.215 268.408 382.277 262.317 378.28C258.31 375.647 254.304 373.047 250.315 370.382C249.597 369.9 248.914 369.723 248.016 369.804C243.722 370.141 239.427 370.478 235.133 370.703C230.714 370.927 226.294 371.056 221.856 371.2C213.304 371.473 204.752 371.618 196.182 371.2C191.043 370.943 185.905 370.606 180.838 369.804C175.053 368.905 169.357 367.733 163.806 365.983C163.087 365.758 162.368 365.517 161.56 365.244C160.662 366.721 159.727 368.086 158.955 369.515C155.505 375.856 151.912 382.133 148.929 388.667C145.875 395.41 143.162 402.249 141.24 409.312C141.132 409.698 141.15 410.099 141.096 410.548C200.458 410.324 259.658 410.115 318.876 409.89C319.774 409.89 320.673 409.858 321.571 409.826C321.625 409.826 321.697 409.81 321.751 409.794C321.787 409.762 321.805 409.698 321.894 409.489C318.229 401.109 313.612 392.985 308.833 384.846ZM129.741 371.987C129.561 371.666 129.454 371.489 129.346 371.313C128.304 369.579 127.154 367.877 126.219 366.079C121.368 356.768 117.29 347.168 113.894 337.375C111.936 331.724 110.427 325.928 108.756 320.197C108.54 319.459 108.181 318.865 107.534 318.319C106.6 317.5 105.702 316.601 105.019 315.622C103.366 313.278 101.803 310.87 100.24 308.462C99.7905 307.772 99.3953 307.065 98.9102 306.23C80.8716 306.23 62.8511 306.23 44.8305 306.23C30.5829 306.23 16.3354 306.23 2.06983 306.23C2.01593 306.23 1.98 306.279 1.9261 306.311C1.8722 306.343 1.83627 306.391 1.74643 306.471C1.74643 328.192 1.74643 349.977 1.74643 371.746C1.74643 371.794 1.78237 371.842 1.8183 371.875C1.85423 371.923 1.90813 371.955 1.9261 371.971C44.4712 371.987 87.0162 371.987 129.741 371.987ZM441.606 259.658C441.606 258.984 441.606 258.358 441.606 257.732C441.499 228.305 441.409 198.878 441.301 169.451C441.265 159.932 441.265 150.412 441.229 140.876C441.229 140.314 441.445 139.704 440.996 139.206C408.278 139.206 375.579 139.206 342.898 139.206C342.359 139.206 341.82 139.222 341.281 139.254C341.227 139.254 341.173 139.286 341.137 139.318C341.083 139.35 341.047 139.399 340.903 139.511C340.813 143.942 340.58 148.469 340.724 153.093C341.604 153.093 342.323 153.093 343.023 153.093C369.722 152.98 396.438 152.884 423.137 152.772C423.496 152.772 423.855 152.755 424.215 152.772C425.903 152.82 426.443 153.301 426.443 154.81C426.425 164.33 426.425 173.85 426.389 183.386C426.281 208.43 426.173 233.458 426.065 258.502C426.065 258.855 426.119 259.225 426.137 259.69C431.294 259.658 436.306 259.658 441.606 259.658ZM147.959 386.66C148.211 386.227 148.39 385.954 148.534 385.665C151.876 378.922 155.451 372.276 159.44 365.806C159.673 365.437 159.835 365.02 159.925 364.618C160.284 363.109 160.59 361.584 160.913 360.059C161.057 359.385 160.895 358.823 160.284 358.341C159.673 357.844 159.134 357.25 158.595 356.688C155.254 353.252 152.307 349.544 149.738 345.61C149.181 344.76 148.498 344.439 147.42 344.471C145.084 344.519 142.749 344.422 140.413 344.487C139.191 344.519 138.311 344.246 137.916 343.138C137.826 342.881 137.664 342.657 137.538 342.416C133.819 335.48 130.1 328.529 126.381 321.594C126.076 321.032 125.752 320.47 125.339 319.732C120.362 321.449 115.404 321 110.337 320.053C110.391 320.406 110.409 320.615 110.463 320.807C112.134 326.266 113.625 331.772 115.547 337.166C117.578 342.865 119.967 348.468 122.303 354.071C125.106 360.781 128.322 367.331 132.687 373.4C135.257 376.964 137.988 380.399 141.545 383.241C143.396 384.718 145.462 385.841 147.959 386.66ZM151.049 344.647C151.355 345.241 151.499 345.643 151.75 345.964C152.595 347.136 153.439 348.291 154.355 349.431C156.889 352.546 159.512 355.58 162.584 358.325C164.183 359.738 165.98 360.573 168.064 361.151C176.724 363.559 185.599 364.955 194.637 365.533C200.835 365.919 207.07 366.159 213.286 366.143C221.245 366.127 229.186 365.79 237.146 365.549C238.727 365.501 240.308 365.325 242.14 365.196C241.799 364.875 241.619 364.682 241.404 364.538C240.488 363.928 239.571 363.35 238.637 362.756C230.786 357.667 223.15 352.337 216.43 346.044C215.765 345.418 215.047 345.145 214.077 345.129C203.907 345.049 193.738 344.92 183.551 344.84C173.382 344.76 163.195 344.711 153.026 344.663C152.469 344.647 151.876 344.647 151.049 344.647ZM210.95 277.221C210.645 277.671 210.375 278.008 210.16 278.377C208.812 280.512 207.411 282.631 206.135 284.815C205.632 285.649 204.949 286.051 203.961 286.275C200.727 287.03 197.457 287.11 194.169 286.58C192.337 286.275 192.103 285.794 193.056 284.285C194.601 281.812 196.182 279.356 197.727 276.884C197.96 276.531 198.14 276.145 198.428 275.616C197.332 275.696 196.451 275.76 195.553 275.808C193.469 275.921 191.385 276.033 189.283 276.145C187.558 276.242 185.815 276.338 184.09 276.483C183.713 276.515 183.371 276.675 182.904 276.804C185.474 281.652 187.971 286.388 190.468 291.108C190.9 291.14 191.241 291.188 191.6 291.172C193.99 291.108 196.379 291.043 198.769 290.963C199.272 290.947 199.793 290.947 199.937 291.461C200.098 292.039 199.524 292.151 199.074 292.247C198.661 292.328 198.248 292.392 197.835 292.408C196.11 292.488 194.367 292.552 192.642 292.633C192.265 292.649 191.888 292.713 191.367 292.777C192.499 294.896 193.541 296.855 194.583 298.83C195.283 298.83 195.876 298.862 196.469 298.83C197.601 298.765 198.733 298.653 199.865 298.557C200.314 298.525 200.781 298.637 200.763 299.102C200.763 299.343 200.458 299.729 200.206 299.793C199.524 299.969 198.805 300.034 198.086 300.098C197.224 300.178 196.361 300.13 195.373 300.306C196.415 302.297 197.421 304.111 198.32 305.957C198.715 306.76 199.254 307.242 200.224 307.434C203.045 307.964 205.255 309.361 206.944 311.432C208.345 313.15 209.693 314.932 211.058 316.681C211.561 317.324 212.082 317.95 212.657 318.672C220.473 314.434 227.192 309.313 232.888 303.18C232.762 302.875 232.708 302.731 232.618 302.586C230.444 298.846 228.306 295.089 225.647 291.573C224.012 289.406 222.575 287.126 220.832 285.023C218.227 281.845 215.155 279.083 210.95 277.221ZM137.089 306.969C135.742 307.788 134.466 308.687 133.065 309.393C128.214 311.849 122.968 313.214 117.488 314.017C117.2 314.065 116.877 314.081 116.607 314.017C116.41 313.968 116.14 313.776 116.122 313.631C116.086 313.406 116.176 313.037 116.356 312.941C116.751 312.732 117.236 312.62 117.685 312.54C121.099 311.962 124.459 311.223 127.693 310.067C130.424 309.088 133.065 307.948 135.329 306.246C136.047 305.701 136.712 305.058 137.269 304.368C137.916 303.549 137.808 302.763 137.089 302.008C136.389 301.254 135.526 300.708 134.448 300.451C133.424 301.045 132.436 301.655 131.412 302.201C127.118 304.48 122.5 306.086 117.685 307.242C116.194 307.595 114.649 307.82 113.122 308.077C112.601 308.157 112.152 308.044 112.044 307.499C111.954 307.033 112.313 306.792 112.727 306.68C113.535 306.471 114.344 306.311 115.17 306.15C120.704 305.075 125.986 303.437 130.837 300.788C131.897 300.21 132.903 299.504 133.837 298.765C134.305 298.396 134.646 297.818 134.843 297.288C134.969 296.935 134.897 296.421 134.7 296.084C133.46 294.062 130.711 293.451 128.573 294.688C126.705 295.763 124.854 296.839 122.77 297.529C118.961 298.797 115.098 299.937 111.092 300.612C110.571 300.692 110.014 300.708 109.493 300.692C109.313 300.676 109.025 300.483 108.989 300.323C108.936 300.178 109.097 299.873 109.241 299.793C109.654 299.584 110.103 299.44 110.553 299.327C113.301 298.621 116.086 297.947 118.817 297.208C122.806 296.132 126.507 294.527 129.669 292.071C130.693 291.284 131.232 290.305 130.927 289.085C130.621 287.865 129.615 287.239 128.358 286.837C127.208 286.468 126.112 286.709 124.998 286.95C120.237 287.993 115.493 289.085 110.714 290.048C108.864 290.417 106.941 290.578 105.037 290.738C104.103 290.819 103.653 290.498 103.725 290.016C103.833 289.342 104.462 289.454 104.983 289.438C106.223 289.374 107.462 289.294 108.792 288.86C107.049 285.633 105.378 282.487 103.617 279.228C100.833 281.507 98.5868 283.915 96.9518 286.741C95.209 289.759 94.7778 292.938 95.8738 296.229C96.2691 297.401 96.7003 298.589 97.2752 299.68C99.018 302.955 100.761 306.246 102.701 309.441C104.031 311.641 105.576 313.76 107.193 315.815C108.379 317.308 109.942 318.463 112.08 318.865C115.224 319.459 118.368 319.667 121.53 319.106C126.345 318.239 130.999 316.874 135.436 314.964C136.46 314.53 137.431 313.984 138.347 313.374C139.048 312.893 139.677 312.299 140.216 311.673C140.97 310.806 140.898 309.891 140.18 309.008C139.407 308.012 138.419 307.274 137.089 306.969ZM1.7105 380.046C2.69867 380.046 3.41733 380.046 4.11803 380.046C36.5658 380.094 69.0136 380.126 101.461 380.174C112.116 380.19 122.77 380.223 133.424 380.239C134.107 380.239 134.826 380.367 135.67 379.982C133.999 377.798 132.418 375.711 130.855 373.673C125.968 373.4 3.30953 373.528 1.7105 373.833C1.7105 375.294 1.7105 376.771 1.7105 378.264C1.7105 378.794 1.7105 379.324 1.7105 380.046ZM220.221 171.603C220.221 172.277 220.221 172.694 220.221 173.128C220.365 179.1 220.473 185.088 220.652 191.06C220.742 194.528 222.521 197.225 225.737 199.087C228.827 200.885 232.313 201.527 235.978 201.27C236.876 201.206 237.757 201.013 238.637 200.949C241.781 200.708 244.494 199.536 246.938 197.835C248.051 197.064 249.165 196.277 249.92 195.395C245.824 187.319 244.386 178.939 244.045 170.286C236.283 172.325 228.432 172.823 220.221 171.603ZM258.023 235.545C260.52 225.496 262.964 215.799 263.269 205.749C258.31 203.726 254.088 200.853 251.016 196.791C250.854 196.855 250.782 196.855 250.729 196.888C250.405 197.128 250.082 197.353 249.776 197.61C246.345 200.468 242.392 202.282 237.631 202.555C236.966 202.587 236.319 202.795 235.493 202.94C237.2 204.722 238.745 206.343 240.272 207.965C243.183 211.031 245.878 214.226 248.016 217.758C251.321 223.2 254.753 228.578 257.304 234.357C257.466 234.678 257.682 234.967 258.023 235.545ZM228.827 202.041C228.468 201.912 228.091 201.8 227.749 201.639C226.833 201.254 225.863 200.949 225.036 200.451C222.036 198.653 219.88 196.326 219.52 192.97C219.395 191.75 219.287 190.53 219.161 189.31C219.089 188.588 218.766 188.347 218.011 188.459C217.203 188.588 216.52 188.909 216.107 189.551C215.316 190.803 214.418 192.023 213.825 193.356C212.747 195.78 211.795 198.252 210.896 200.74C208.381 207.708 206.638 214.852 205.129 222.044C204.842 223.376 204.608 224.725 204.357 226.073C205.363 225.431 206.081 224.661 206.782 223.89C210.591 219.7 214.346 215.462 218.191 211.32C221.281 207.981 224.515 204.754 228.665 202.394C228.737 202.346 228.755 202.201 228.827 202.041ZM226.312 139.19C227.605 140.876 228.935 142.16 230.588 143.171C234.145 145.339 238.278 145.387 241.853 143.268C243.578 142.256 244.961 140.94 246.147 139.431C248.267 136.718 249.579 133.7 250.423 130.505C250.513 130.168 250.531 129.814 250.621 129.301C242.446 132.624 234.469 135.867 226.312 139.19ZM194.619 285.103C197.619 285.697 200.224 285.601 202.901 285.103C203.8 284.943 204.357 284.574 204.806 283.851C207.465 279.565 210.196 275.311 212.873 271.024C213.052 270.735 213.142 270.398 213.286 270.029C210.447 270.029 207.77 270.045 205.075 270.013C204.267 269.997 203.746 270.206 203.368 270.88C202.542 272.357 201.644 273.802 200.727 275.23C198.751 278.329 196.739 281.411 194.744 284.509C194.69 284.67 194.69 284.831 194.619 285.103ZM191.277 135.449C191.421 135.819 191.474 136.172 191.672 136.477C192.66 138.002 193.541 139.575 194.69 140.988C196.811 143.573 199.667 145.226 203.225 145.868C207.519 146.655 212.352 144.295 214.059 141.421C211.651 140.506 192.714 135.514 191.277 135.449ZM219.664 260.043C219.053 260.043 218.694 260.027 218.353 260.043C216.017 260.124 213.699 260.236 211.364 260.252C210.465 260.252 209.944 260.557 209.531 261.247C208.201 263.399 206.836 265.534 205.506 267.685C205.381 267.894 205.327 268.151 205.237 268.375C205.453 268.456 205.56 268.536 205.668 268.536C208.417 268.488 211.166 268.424 213.915 268.391C214.58 268.391 214.831 268.006 215.101 267.573C216.484 265.389 217.867 263.206 219.251 261.007C219.359 260.782 219.431 260.541 219.664 260.043Z" fill="#060505"/>
<path d="M408.206 369.194C405.152 367.941 402.17 366.721 399.115 365.469C399.277 365.004 399.421 364.618 399.582 364.201C399.834 364.233 399.996 364.233 400.157 364.297C402.223 365.116 404.308 365.951 406.374 366.786C406.913 366.994 407.434 367.203 408.027 367.412C408.027 365.983 408.063 364.699 408.027 363.414C407.685 354.922 407.344 346.413 407.003 337.921C406.967 337.23 406.949 336.524 407.003 335.834C407.057 335.208 407.398 335.047 408.099 335.143C408.907 335.256 409.734 335.384 410.56 335.368C442.882 335.272 475.204 335.159 507.526 335.063C510.598 335.047 510.329 334.903 510.365 337.584C510.473 344.856 510.562 352.128 510.652 359.401C510.724 365.598 510.814 371.81 510.886 378.007C510.904 380.142 510.886 380.126 508.514 380.158C489.595 380.351 470.694 380.528 451.776 380.72C438.193 380.849 424.61 380.993 411.009 381.106C408.638 381.122 408.602 381.09 408.53 378.987C408.44 375.76 408.332 372.501 408.206 369.194ZM509.197 378.714C509.035 364.554 508.874 350.603 508.712 336.588C475.581 336.685 442.595 336.765 409.608 336.861C409.32 336.861 409.051 336.941 408.602 337.006C408.799 341.806 409.015 346.558 409.195 351.294C409.374 355.997 409.464 360.701 409.716 365.405C409.967 370.141 409.895 374.877 410.398 379.677C443.349 379.356 476.138 379.035 509.197 378.714Z" fill="#111111"/>
<path d="M369.255 330.279C370.135 324.676 373.153 320.262 377.447 316.296C377.915 316.585 378.328 316.842 378.831 317.147C378.328 317.629 377.933 318.014 377.537 318.399C374.501 321.433 372.201 324.837 371.249 328.866C371.015 329.83 370.548 330.263 369.255 330.279Z" fill="#141414"/>
<path d="M425.149 299.953C424.969 299.44 424.843 299.102 424.682 298.669C425.005 298.509 425.275 298.348 425.598 298.22C429.227 296.887 432.875 295.571 436.504 294.238C437.097 294.013 437.672 293.757 438.372 293.452C438.552 293.949 438.678 294.334 438.857 294.848C434.474 296.871 429.964 298.476 425.149 299.953Z" fill="#141414"/>
<path d="M377.735 348.243C377.34 348.645 377.034 348.95 376.585 349.383C373.656 345.723 371.249 342.095 369.865 337.824C370.404 337.664 370.836 337.519 371.375 337.359C372.812 341.292 375.004 344.808 377.735 348.243Z" fill="#141414"/>
<path d="M462.07 280.657C461.711 280.095 461.495 279.726 461.226 279.292C464.298 276.354 466.993 273.176 469.311 269.676C469.796 269.997 470.155 270.238 470.641 270.559C468.287 274.235 465.448 277.478 462.07 280.657Z" fill="#141414"/>
<path d="M396.33 305.893C396.474 306.118 396.6 306.246 396.654 306.391C396.744 306.632 396.815 306.889 396.923 307.29C392.845 308.622 388.964 310.212 385.371 312.443C384.904 312.17 384.472 311.913 383.897 311.56C387.778 309.024 391.947 307.29 396.33 305.893Z" fill="#141414"/>
<path d="M475.312 251.599C475.869 251.647 476.282 251.663 476.857 251.711C476.767 255.934 475.617 259.915 474.144 263.88C472.635 263.27 472.617 263.27 473.012 262.146C474.234 258.759 474.97 255.308 475.312 251.599Z" fill="#141414"/>
<path d="M417.082 300.708C417.226 301.173 417.333 301.559 417.495 302.105C413.273 303.244 409.051 304.079 404.829 305.107C404.667 304.898 404.541 304.721 404.433 304.545C404.326 304.352 404.272 304.159 404.164 303.919C404.326 303.806 404.433 303.678 404.577 303.63C407.739 302.875 410.901 302.137 414.063 301.398C415.052 301.173 416.022 300.949 417.082 300.708Z" fill="#141414"/>
<path d="M391.857 361.921C388.03 360.059 384.886 357.651 381.903 354.906C382.065 354.681 382.191 354.472 382.352 354.28C382.496 354.119 382.676 353.991 382.963 353.75C385.784 356.335 388.802 358.662 392.396 360.509C392.234 360.974 392.072 361.392 391.857 361.921Z" fill="#141414"/>
<path d="M455.171 284.397C455.387 284.831 455.566 285.216 455.8 285.681C452.764 287.833 449.602 289.711 446.152 291.445C445.936 290.947 445.757 290.53 445.577 290.176C448.793 288.234 451.919 286.372 455.171 284.397Z" fill="#141414"/>
<path d="M471.79 235.609C472.258 235.369 472.653 235.176 473.21 234.887C474.953 237.937 476.031 241.068 476.552 244.535C475.905 244.503 475.474 244.487 474.917 244.471C474.306 241.389 473.3 238.467 471.79 235.609Z" fill="#141414"/>
<path d="M454.524 220.134C454.219 220.583 454.021 220.904 453.77 221.273C453.357 221.145 452.979 221.033 452.584 220.936C450.356 220.342 448.146 219.748 445.918 219.154C445.577 219.058 445.2 219.042 444.894 218.897C444.679 218.785 444.445 218.496 444.463 218.303C444.481 218.095 444.751 217.854 444.966 217.725C445.146 217.629 445.451 217.597 445.649 217.661C448.56 218.4 451.578 218.849 454.524 220.134Z" fill="#141414"/>
<path d="M467.173 229.782C464.909 228.112 462.843 226.587 460.669 224.998C460.849 224.677 461.064 224.275 461.334 223.794C463.975 225.271 466.275 226.924 468.377 229.011C467.927 229.284 467.532 229.541 467.173 229.782Z" fill="#1B1B1B"/>
<path d="M453.051 80.2723C452.584 80.6255 452.333 80.9465 452.027 81.0107C451.596 81.091 451.255 80.802 451.219 80.3846C451.183 79.9512 451.488 79.6462 451.919 79.6783C452.243 79.6943 452.548 79.9833 453.051 80.2723Z" fill="#212121"/>
<path d="M146.702 245.242C147.025 244.262 147.241 243.508 147.546 242.769C149.486 237.873 152.451 233.49 155.883 229.348C164.147 219.395 174.244 211.208 186.013 204.658C191.582 201.575 197.421 198.991 203.818 197.578C205.381 197.225 206.98 197.016 208.579 196.791C209.154 196.711 209.765 196.775 210.483 196.775C210.07 197.979 209.675 199.087 209.297 200.195C206.351 208.912 204.141 217.758 202.578 226.748C202.47 227.326 202.308 227.904 202.29 228.482C202.29 228.803 202.47 229.316 202.722 229.397C203.099 229.525 203.656 229.429 204.051 229.284C204.339 229.172 204.554 228.835 204.77 228.594C210.735 221.755 216.646 214.884 223.168 208.462C225.18 206.472 227.426 204.706 229.977 203.277C231.756 202.298 232.726 202.314 234.073 203.678C238.942 208.559 243.632 213.551 247.135 219.331C250.549 224.982 253.981 230.617 256.604 236.605C256.891 237.247 257.25 237.873 257.646 238.467C257.807 238.708 258.275 239.013 258.454 238.949C258.778 238.836 259.101 238.499 259.227 238.194C259.406 237.761 259.406 237.247 259.514 236.781C260.431 232.864 261.329 228.931 262.263 225.014C263.629 219.186 264.437 213.311 264.761 207.371C264.778 207.05 264.85 206.745 264.886 206.359C265.3 206.424 265.641 206.44 265.964 206.536C270.725 207.965 275.505 207.917 280.266 206.6C283.069 205.83 285.835 204.947 288.548 203.983C289.555 203.63 290.309 203.63 291.225 204.096C296.993 207.05 302.67 210.084 307.898 213.792C317.636 220.695 325.632 228.899 331.74 238.579C337.202 247.248 340.652 256.528 342.43 266.337C343.454 271.939 344.083 277.574 344.209 283.241C344.299 286.773 344.497 290.305 344.407 293.821C344.299 298.525 344.065 303.228 343.688 307.916C343.239 313.358 342.305 318.752 341.209 324.114C339.897 330.52 338.46 336.909 337.058 343.315C335.172 351.936 331.219 359.786 325.829 367.107C322.613 371.457 319.056 375.551 314.654 378.987C311.168 381.716 307.413 384.059 303.047 385.585C297.622 387.479 292.124 387.688 286.482 386.58C278.541 385.007 271.264 382.053 264.671 377.863C257.017 372.998 249.489 367.958 241.925 362.981C238.26 360.573 234.594 358.181 231.019 355.66C226.923 352.787 222.916 349.801 219.215 346.51C218.874 346.205 218.496 345.932 218.245 345.578C218.065 345.338 217.903 344.92 218.029 344.712C218.496 343.861 218.065 343.17 217.688 342.448C214.508 336.46 211.328 330.456 208.166 324.468C207.86 323.906 207.591 323.312 207.303 322.734C209.172 321.883 210.968 321.144 212.675 320.278C220.545 316.248 227.354 311.063 233.283 304.962C235.331 302.859 237.164 300.612 238.709 298.203C239.877 296.373 240.793 294.479 241.08 292.36C241.098 292.28 241.206 292.199 241.332 292.055C241.512 292.135 241.727 292.199 241.907 292.312C251.393 298.492 260.664 304.914 269.629 311.673C278.469 318.335 286.931 325.367 294.819 332.928C299.921 337.824 304.934 342.785 310.001 347.714C310.324 348.035 310.647 348.34 311.007 348.629C311.348 348.902 311.833 348.998 312.103 348.613C312.264 348.404 312.264 347.97 312.121 347.762C311.779 347.264 311.33 346.815 310.881 346.381C303.856 339.51 296.939 332.543 289.555 325.961C289.429 325.848 289.321 325.72 289.123 325.479C289.555 324.5 289.986 323.472 290.453 322.445C292.842 317.147 294.154 311.641 294.945 305.99C295.591 301.414 295.753 296.807 295.753 292.215C295.771 287.142 295.394 282.069 294.621 277.012C294.154 273.946 293.884 270.848 293.435 267.765C293.148 265.759 292.681 263.768 292.303 261.761C292.088 260.605 291.908 259.433 291.621 258.294C291.333 257.154 290.92 256.03 290.507 254.922C290.435 254.746 289.986 254.489 289.842 254.553C289.572 254.665 289.339 254.938 289.195 255.195C289.105 255.356 289.159 255.629 289.267 255.821C290.004 257.314 290.147 258.92 290.417 260.509C290.974 263.736 291.603 266.947 292.106 270.173C292.519 272.87 292.824 275.584 293.112 278.297C293.471 281.652 293.867 285.007 294.028 288.362C294.172 291.397 294.082 294.463 293.974 297.497C293.902 299.68 293.705 301.88 293.471 304.063C292.771 310.806 291.154 317.372 288.117 323.601C288.045 323.745 287.955 323.89 287.866 324.018C287.848 324.05 287.758 324.05 287.578 324.114C287.363 323.954 287.093 323.777 286.842 323.569C276.96 315.06 266.503 307.145 255.58 299.713C250.962 296.566 246.255 293.532 241.601 290.433C241.224 290.177 240.793 289.92 240.541 289.583C239.284 287.897 237.415 287.431 235.367 287.64C233.66 287.817 231.971 288.25 230.318 288.667C229.115 288.972 227.983 289.47 226.707 289.936C226.42 289.599 226.132 289.278 225.881 288.94C223.832 286.115 221.694 283.338 219.071 280.881C217.293 279.196 215.316 277.751 213.088 276.563C212.675 276.354 212.28 276.113 211.759 275.824C212.082 275.262 212.352 274.749 212.657 274.251C215.478 269.772 218.299 265.309 221.119 260.83C221.245 260.637 221.371 260.461 221.479 260.284C222.162 259.112 221.73 258.438 220.221 258.454C217.76 258.486 215.316 258.615 212.855 258.679C212.19 258.695 211.525 258.775 210.878 258.679C209.585 258.502 208.884 259.064 208.309 259.995C206.207 263.351 204.069 266.706 201.949 270.045C201.302 271.072 200.62 272.084 200.009 273.127C199.631 273.769 199.11 274.026 198.302 274.075C194.475 274.283 190.684 274.829 186.839 274.765C185.707 274.749 184.593 275.006 183.461 275.086C182.042 275.182 182.006 275.182 181.413 274.042C178.538 268.632 175.664 263.222 172.789 257.812C170.813 254.087 168.819 250.379 166.896 246.638C166.339 245.547 165.567 245.194 164.255 245.21C159.045 245.258 153.834 245.21 148.624 245.21C148.121 245.242 147.546 245.242 146.702 245.242Z" fill="#CB5C46"/>
<path d="M441.606 259.658C436.306 259.658 431.293 259.658 426.155 259.658C426.119 259.193 426.083 258.839 426.083 258.47C426.191 233.426 426.299 208.398 426.407 183.354C426.442 173.834 426.46 164.314 426.46 154.778C426.46 153.285 425.921 152.804 424.233 152.739C423.873 152.723 423.514 152.739 423.155 152.739C396.456 152.852 369.74 152.948 343.041 153.06C342.323 153.06 341.622 153.06 340.741 153.06C340.598 148.437 340.831 143.91 340.921 139.479C341.065 139.367 341.101 139.318 341.155 139.286C341.209 139.254 341.262 139.222 341.298 139.222C341.837 139.206 342.376 139.174 342.915 139.174C375.597 139.174 408.296 139.174 441.013 139.174C441.463 139.672 441.247 140.282 441.247 140.843C441.283 150.363 441.301 159.883 441.319 169.419C441.409 198.846 441.516 228.273 441.624 257.7C441.606 258.358 441.606 258.984 441.606 259.658Z" fill="#F3D054"/>
<path d="M147.959 386.66C145.462 385.842 143.396 384.702 141.563 383.225C138.006 380.383 135.275 376.948 132.706 373.384C128.34 367.315 125.124 360.765 122.321 354.055C119.985 348.452 117.596 342.849 115.565 337.15C113.643 331.756 112.152 326.25 110.481 320.791C110.427 320.599 110.409 320.406 110.355 320.037C115.422 320.984 120.38 321.45 125.357 319.716C125.77 320.454 126.112 321.016 126.399 321.578C130.118 328.513 133.837 335.465 137.557 342.4C137.682 342.641 137.844 342.865 137.934 343.122C138.329 344.23 139.209 344.503 140.431 344.471C142.767 344.407 145.103 344.503 147.438 344.455C148.516 344.439 149.199 344.744 149.756 345.595C152.325 349.528 155.272 353.236 158.613 356.672C159.17 357.234 159.691 357.828 160.302 358.325C160.913 358.823 161.075 359.369 160.931 360.043C160.608 361.568 160.302 363.093 159.943 364.602C159.853 365.02 159.673 365.421 159.458 365.79C155.451 372.244 151.894 378.89 148.552 385.649C148.39 385.97 148.211 386.227 147.959 386.66Z" fill="#CA5B46"/>
<path d="M151.049 344.647C151.876 344.647 152.451 344.647 153.026 344.647C163.195 344.712 173.382 344.744 183.551 344.824C193.72 344.904 203.889 345.033 214.077 345.113C215.047 345.113 215.765 345.402 216.43 346.028C223.15 352.321 230.786 357.651 238.637 362.74C239.553 363.334 240.488 363.928 241.404 364.522C241.619 364.667 241.781 364.859 242.14 365.18C240.308 365.309 238.727 365.485 237.146 365.533C229.186 365.758 221.245 366.095 213.286 366.127C207.07 366.143 200.835 365.919 194.637 365.517C185.617 364.955 176.724 363.543 168.064 361.135C165.98 360.557 164.165 359.722 162.584 358.309C159.512 355.58 156.889 352.546 154.355 349.415C153.439 348.292 152.595 347.12 151.75 345.948C151.517 345.643 151.373 345.241 151.049 344.647Z" fill="#CA5B46"/>
<path d="M1.71045 380.046C1.71045 379.308 1.71045 378.794 1.71045 378.264C1.71045 376.771 1.71045 375.294 1.71045 373.833C3.30948 373.528 125.968 373.4 130.855 373.673C132.4 375.712 133.999 377.799 135.67 379.982C134.825 380.367 134.107 380.239 133.424 380.239C122.77 380.223 112.116 380.191 101.461 380.174C69.0136 380.126 36.5658 380.094 4.11798 380.046C3.41728 380.046 2.69862 380.046 1.71045 380.046Z" fill="#999999"/>
<path d="M219.664 260.043C219.449 260.541 219.359 260.798 219.233 261.023C217.85 263.206 216.466 265.405 215.083 267.589C214.813 268.022 214.562 268.391 213.897 268.408C211.148 268.44 208.399 268.504 205.65 268.552C205.542 268.552 205.435 268.472 205.219 268.391C205.309 268.167 205.363 267.926 205.488 267.701C206.836 265.55 208.201 263.415 209.513 261.264C209.926 260.589 210.447 260.284 211.346 260.268C213.681 260.252 215.999 260.124 218.335 260.059C218.694 260.027 219.035 260.043 219.664 260.043Z" fill="#3E60CD"/>
<path d="M231.792 135.417C231.792 135.369 231.828 135.273 231.81 135.257C229.474 133.876 229.294 131.821 229.546 129.622C229.582 129.365 229.672 129.092 229.797 128.867C230.282 127.984 231.109 127.792 231.989 128.37C232.906 128.98 233.319 129.863 233.481 130.842C233.696 132.174 233.678 133.491 233.139 134.775C232.906 135.353 232.367 135.433 231.792 135.417Z" fill="#090A0F"/>
<path d="M373.531 210.678C384.544 210.517 395.558 210.341 406.553 210.18C406.679 210.18 406.787 210.18 406.913 210.18C408.476 210.196 408.691 210.373 408.62 211.769C408.404 216.04 408.17 220.31 407.937 224.58C407.919 224.853 407.901 225.11 407.865 225.383C407.811 225.945 407.47 226.266 406.841 226.314C406.482 226.346 406.122 226.346 405.763 226.346C394.983 226.459 384.221 226.587 373.441 226.7C362.607 226.812 351.773 226.924 340.939 227.053C338.388 227.085 338.388 227.085 338.406 224.901C338.424 221.161 338.442 217.42 338.478 213.664C338.478 213.295 338.46 212.909 338.496 212.54C338.586 211.352 338.783 211.208 340.131 211.191C351.252 211.031 362.391 210.87 373.513 210.71C373.531 210.694 373.531 210.694 373.531 210.678ZM340.436 225.351C362.284 225.174 384.095 224.885 405.871 224.645C406.338 222.365 406.787 213.295 406.5 211.882C405.943 211.882 405.35 211.866 404.757 211.882C393.743 212.058 382.748 212.251 371.734 212.428C361.745 212.588 351.755 212.717 341.766 212.861C341.37 212.861 340.957 212.941 340.454 212.99C340.436 217.099 340.436 221.145 340.436 225.351Z" fill="#0E0E0E"/>
<path d="M373.818 167.67C384.598 167.782 395.36 167.894 406.14 168.007C406.625 168.007 407.128 167.975 407.56 168.103C407.811 168.183 408.135 168.553 408.117 168.761C408.099 168.986 407.757 169.291 407.488 169.387C407.182 169.5 406.787 169.435 406.428 169.435C388.12 169.259 369.812 169.082 351.486 168.906C348.126 168.874 344.784 168.874 341.424 168.841C340.957 168.841 340.454 168.809 340.023 168.681C339.807 168.617 339.592 168.28 339.592 168.071C339.592 167.862 339.861 167.557 340.077 167.493C340.454 167.381 340.903 167.381 341.316 167.397C351.252 167.477 361.188 167.573 371.123 167.67C372.021 167.686 372.92 167.67 373.818 167.67Z" fill="#111111"/>
<path d="M373.459 199.617C362.625 199.617 351.809 199.617 340.975 199.617C340.436 199.617 339.879 199.649 339.376 199.536C339.125 199.472 338.801 199.103 338.801 198.878C338.801 198.67 339.16 198.348 339.43 198.268C339.807 198.156 340.256 198.188 340.67 198.188C362.751 198.204 384.814 198.236 406.895 198.252C407.308 198.252 407.757 198.236 408.134 198.348C408.35 198.413 408.674 198.734 408.638 198.894C408.584 199.151 408.332 199.52 408.081 199.585C407.578 199.713 407.021 199.681 406.482 199.681C395.468 199.681 384.472 199.681 373.459 199.681C373.459 199.665 373.459 199.649 373.459 199.617Z" fill="#060505"/>
<path d="M373.98 184.317C363.092 184.317 352.204 184.317 341.316 184.317C341.011 184.317 340.724 184.333 340.418 184.333C339.915 184.317 339.43 184.221 339.412 183.659C339.394 183.113 339.771 182.921 340.328 182.905C340.562 182.905 340.813 182.905 341.047 182.905C363.128 182.905 385.191 182.921 407.272 182.921C407.578 182.921 407.865 182.921 408.17 182.937C408.709 182.953 409.123 183.161 409.123 183.675C409.123 184.125 408.709 184.285 408.26 184.317C407.721 184.333 407.182 184.333 406.643 184.333C395.755 184.333 384.868 184.333 373.98 184.317Z" fill="#060505"/>
<path d="M399.511 243.797C404.254 243.893 407.955 247.361 407.847 251.599C407.721 255.821 403.859 259.144 399.133 259.08C394.426 259.016 390.617 255.516 390.707 251.326C390.761 247.008 394.642 243.701 399.511 243.797ZM406.086 251.422C406.248 248.372 403.427 245.322 399.313 245.258C395.558 245.194 392.414 248.003 392.36 251.326C392.306 254.73 395.468 257.571 399.295 257.555C403.571 257.539 406.284 254.264 406.086 251.422Z" fill="#0E0E0E"/>
<path d="M102.036 256.367C101.695 255.693 101.479 255.131 101.12 254.649C100.258 253.493 101.03 252.498 102.504 252.578C104.282 252.675 106.097 252.546 107.894 252.498C112.439 252.386 116.985 252.289 121.53 252.161C122.554 252.129 123.165 252.45 123.65 253.285C126.22 257.635 128.843 261.954 131.43 266.288C131.574 266.529 131.717 266.754 131.807 267.011C132.023 267.637 131.735 268.054 130.963 268.102C129.525 268.215 128.088 268.247 126.651 268.311C126.237 268.327 125.824 268.311 125.321 268.311C125.393 269.226 126.004 269.852 126.417 270.527C127.549 272.437 127.423 272.694 125.088 272.838C120.201 273.159 115.296 273.448 110.409 273.818C109.277 273.898 108.684 273.593 108.181 272.694C105.594 268.054 102.935 263.447 100.294 258.823C100.204 258.679 100.132 258.534 100.06 258.39C99.3234 256.977 99.575 256.592 101.282 256.463C101.479 256.447 101.659 256.415 102.036 256.367ZM109.924 272.549C114.936 272.228 120.039 271.891 125.375 271.538C122.411 266.722 119.536 262.05 116.679 257.378C111.613 257.523 106.654 257.651 101.695 257.796C102 259.032 107.858 269.531 109.924 272.549ZM103.635 256.399C104.3 256.399 104.893 256.415 105.486 256.399C109.007 256.319 112.529 256.271 116.05 256.094C117.29 256.03 117.847 256.447 118.386 257.362C119.823 259.819 121.351 262.243 122.86 264.667C123.345 265.454 123.848 266.224 124.369 267.027C126.273 266.979 128.088 267.011 130.154 266.834C127.423 262.275 124.8 257.924 122.141 253.477C115.565 253.638 109.079 253.782 102.342 253.943C102.809 254.858 103.204 255.613 103.635 256.399Z" fill="#101014"/>
<path d="M146.612 254.087C141.114 254.216 135.616 254.328 130.118 254.441C129.759 254.441 129.346 254.505 129.058 254.36C128.735 254.2 128.393 253.895 128.304 253.59C128.178 253.188 128.555 252.899 129.022 252.819C129.489 252.739 129.975 252.691 130.442 252.691C132.777 252.643 135.095 252.626 137.431 252.578C145.983 252.402 154.517 252.209 163.069 252.032C163.536 252.016 164.057 251.968 164.488 252.097C164.812 252.209 165.135 252.562 165.243 252.851C165.369 253.253 165.01 253.558 164.542 253.622C163.949 253.702 163.357 253.75 162.764 253.766C158.937 253.831 155.11 253.911 151.283 253.959C149.738 253.975 148.175 253.959 146.63 253.959C146.612 254.007 146.612 254.055 146.612 254.087Z" fill="#111111"/>
<path d="M149.522 259.482C144.51 259.546 139.479 259.626 134.466 259.69C133.927 259.69 133.388 259.706 132.849 259.658C132.382 259.61 132.095 259.321 132.077 258.904C132.059 258.486 132.31 258.165 132.777 258.101C133.298 258.021 133.837 258.021 134.376 258.021C143.342 257.892 152.289 257.764 161.254 257.635C162.8 257.619 164.363 257.523 165.908 257.523C167.058 257.523 167.525 257.812 167.471 258.422C167.435 258.968 167.058 259.193 165.98 259.241C164.902 259.289 163.824 259.305 162.746 259.305C158.326 259.305 153.906 259.305 149.486 259.305C149.522 259.353 149.522 259.417 149.522 259.482Z" fill="#111111"/>
<path d="M16.3713 327.1C16.3713 325.046 16.3713 323.231 16.3713 321.417C16.3713 321.209 16.3713 320.984 16.3713 320.775C16.4072 319.17 16.4791 319.09 18.3476 319.057C27.5106 318.913 36.6556 318.784 45.8186 318.64C47.8489 318.608 49.8791 318.544 51.9273 318.496C52.4124 318.479 52.8975 318.463 53.3646 318.496C54.1192 318.576 54.4247 318.833 54.4965 319.507C54.5504 319.876 54.5145 320.261 54.5145 320.631C54.5145 330.632 54.5145 340.634 54.5145 350.635C54.5145 353.076 54.4965 353.092 51.6937 353.092C49.8432 353.092 47.9926 353.092 46.0342 353.092C45.9624 353.573 45.8905 353.926 45.8905 354.264C45.8905 355.821 45.9264 357.362 45.8905 358.919C45.8725 360.011 45.639 360.22 44.4172 360.3C43.5908 360.348 42.7463 360.364 41.9019 360.364C32.3257 360.444 22.7494 360.509 13.1732 360.573C12.9396 360.573 12.6881 360.573 12.4545 360.573C10.8555 360.541 10.7297 360.444 10.6938 358.999C10.6219 354.665 10.586 350.33 10.5141 345.996C10.4243 340.168 10.3345 334.341 10.2446 328.513C10.2267 327.405 10.5321 327.116 11.8437 327.084C13.3169 327.068 14.7543 327.1 16.3713 327.1ZM44.0399 358.646C43.9142 348.484 43.7884 338.563 43.6626 328.497C33.1521 328.593 22.7674 328.69 12.221 328.786C12.3467 338.916 12.4905 348.869 12.6162 358.935C23.1447 358.839 33.4935 358.743 44.0399 358.646ZM18.3835 320.727C18.0781 322.718 18.132 325.896 18.5093 327.036C19.1381 327.036 19.7849 327.036 20.4317 327.036C27.9777 326.956 35.5058 326.86 43.0518 326.795C45.4773 326.779 45.5132 326.844 45.5491 329.075C45.639 336.026 45.7288 342.978 45.8366 349.929C45.8366 350.443 45.6569 351.005 46.0881 351.438C48.2621 351.438 50.3822 351.438 52.61 351.438C52.61 341.003 52.61 330.648 52.61 320.326C51.4242 320.101 22.3182 320.47 18.3835 320.727Z" fill="#100F0D"/>
<path d="M79.5421 319.924C86.4233 319.924 93.3045 319.924 100.204 319.924C100.689 319.924 101.192 319.876 101.623 320.005C101.893 320.085 102.234 320.438 102.234 320.663C102.234 320.888 101.893 321.257 101.623 321.321C101.12 321.433 100.563 321.401 100.024 321.401C87.9864 321.369 75.9487 321.337 63.929 321.305C62.0785 321.305 60.2099 321.305 58.3594 321.289C57.9461 321.289 57.497 321.321 57.1197 321.193C56.8502 321.096 56.5088 320.759 56.5088 320.518C56.5088 320.278 56.8681 319.924 57.1376 319.844C57.6407 319.716 58.1977 319.732 58.7367 319.732C65.6898 319.732 72.6249 319.732 79.578 319.732C79.5421 319.812 79.5421 319.876 79.5421 319.924Z" fill="#111111"/>
<path d="M79.0031 330.311C72.1757 330.311 65.3484 330.311 58.539 330.311C58.0539 330.311 57.5509 330.359 57.1197 330.231C56.8502 330.151 56.5088 329.798 56.5088 329.573C56.5088 329.348 56.8322 329.011 57.1197 328.915C57.497 328.786 57.9461 328.818 58.3594 328.818C72.1218 328.802 85.9023 328.802 99.6647 328.786C100.132 328.786 100.635 328.77 101.084 328.899C101.354 328.979 101.677 329.332 101.677 329.557C101.677 329.781 101.354 330.151 101.084 330.215C100.581 330.327 100.024 330.295 99.4851 330.295C92.6398 330.295 85.8304 330.295 79.0031 330.311Z" fill="#212121"/>
<path d="M257.646 134.069C259.065 134.727 260.269 135.289 261.473 135.851C261.832 136.027 262.263 136.188 262.479 136.477C262.64 136.67 262.604 137.103 262.479 137.344C262.389 137.504 261.958 137.601 261.706 137.569C261.365 137.52 261.041 137.344 260.736 137.199C259.352 136.573 257.987 135.931 256.604 135.289C255.328 134.679 255.256 134.454 256.136 133.346C257.035 132.207 257.969 131.099 258.867 129.991C259.532 129.172 260.197 128.354 260.862 127.535C261.077 127.278 261.275 127.005 261.508 126.764C261.85 126.395 262.209 125.978 262.838 126.331C263.305 126.588 263.323 126.973 262.892 127.583C262.676 127.904 262.407 128.193 262.155 128.498C260.718 130.296 259.245 132.094 257.646 134.069Z" fill="#141414"/>
<path d="M222.359 160.028C224.156 160.076 225.809 159.675 227.354 158.92C229.51 157.861 231.127 156.335 232.331 154.441C232.564 154.072 232.762 153.671 233.067 153.365C233.229 153.205 233.642 153.125 233.84 153.205C234.055 153.285 234.253 153.574 234.307 153.799C234.361 154.04 234.271 154.345 234.145 154.57C231.863 158.422 228.558 161.055 223.509 161.489C222.754 161.553 221.946 161.489 221.209 161.344C220.922 161.28 220.598 160.863 220.509 160.574C220.401 160.188 220.904 159.883 221.515 159.915C221.784 159.899 222.072 159.98 222.359 160.028Z" fill="#111111"/>
<path d="M210.07 132.865C209.98 133.988 209.908 135.112 209.225 136.108C208.902 136.573 208.525 137.007 207.842 136.991C207.087 136.974 206.656 136.509 206.405 135.947C205.56 133.988 205.776 132.062 206.782 130.232C207.303 129.285 208.507 129.285 209.261 130.152C209.962 130.938 209.98 131.918 210.07 132.865Z" fill="#0E0E0E"/>
<path d="M208.758 119.058C209.98 119.187 211.292 119.283 212.424 119.973C212.675 120.118 212.927 120.279 213.088 120.471C213.196 120.616 213.232 120.889 213.142 121.049C213.052 121.21 212.783 121.386 212.603 121.37C212.262 121.354 211.92 121.242 211.597 121.113C209.387 120.182 207.213 120.311 205.111 121.354C204.446 121.691 203.817 122.125 203.189 122.494C202.937 122.638 202.704 122.847 202.434 122.895C202.183 122.927 201.841 122.847 201.644 122.703C201.518 122.606 201.482 122.285 201.536 122.109C201.626 121.868 201.805 121.627 202.021 121.466C203.979 120.07 206.099 119.074 208.758 119.058Z" fill="#141414"/>
<path d="M237.11 120.744C237.146 121.306 236.751 121.659 236.319 121.579C235.978 121.515 235.655 121.37 235.313 121.258C234.469 121.001 233.642 120.648 232.78 120.487C230.875 120.15 228.989 120.086 227.48 121.531C227.3 121.707 226.797 121.788 226.563 121.691C226.132 121.499 226.132 121.049 226.366 120.712C227.066 119.685 228.216 119.235 229.474 119.026C231.917 118.625 234.199 119.171 236.391 120.086C236.733 120.246 236.948 120.6 237.11 120.744Z" fill="#141414"/>
<path d="M434.833 368.68C428.958 368.728 423.101 368.776 417.226 368.84C415.842 368.857 415.698 368.76 415.68 367.476C415.609 364.056 415.555 360.637 415.501 357.201C415.429 352.594 415.357 348.003 415.267 343.395C415.267 343.186 415.249 342.962 415.267 342.753C415.339 341.838 415.555 341.629 416.543 341.549C416.848 341.533 417.136 341.549 417.441 341.549C428.868 341.533 440.313 341.517 451.74 341.501C454.219 341.501 454.219 341.501 454.237 343.716C454.255 351.261 454.255 358.807 454.255 366.352C454.255 368.487 454.255 368.503 451.883 368.503C446.188 368.503 440.51 368.503 434.815 368.503C434.833 368.551 434.833 368.616 434.833 368.68ZM417.477 367.219C429.263 367.091 440.78 366.962 452.261 366.85C452.62 365.116 452.512 344.455 452.171 343.267C450.194 343.026 418.645 343.09 417.136 343.379C417.064 351.229 417.495 359.112 417.477 367.219Z" fill="#090A0F"/>
<path d="M480.935 350.186C487.026 350.186 493.117 350.186 499.225 350.186C499.764 350.186 500.321 350.154 500.824 350.298C501.058 350.363 501.292 350.748 501.328 351.021C501.346 351.181 501.04 351.47 500.807 351.55C500.483 351.663 500.106 351.647 499.746 351.647C487.314 351.567 474.881 351.486 462.466 351.39C461.999 351.39 461.495 351.39 461.064 351.245C460.813 351.165 460.579 350.796 460.561 350.539C460.543 350.363 460.849 350.041 461.082 349.993C461.531 349.897 462.034 349.913 462.502 349.913C468.664 349.913 474.809 349.913 480.971 349.913C480.935 349.993 480.935 350.09 480.935 350.186Z" fill="#111111"/>
<path d="M481.582 346.349C475.779 346.349 469.994 346.349 464.19 346.349C463.777 346.349 463.346 346.349 462.933 346.333C462.394 346.317 461.981 346.108 461.998 345.578C461.998 345.129 462.376 344.936 462.825 344.888C463.184 344.856 463.544 344.84 463.903 344.84C475.851 344.808 487.799 344.776 499.764 344.744C499.998 344.744 500.25 344.728 500.483 344.744C501.22 344.808 501.669 345.113 501.597 345.53C501.507 346.124 500.986 346.269 500.411 346.285C499.998 346.301 499.567 346.285 499.154 346.285C493.296 346.285 487.439 346.285 481.582 346.285C481.582 346.333 481.582 346.349 481.582 346.349Z" fill="#1B1B1B"/>
<path d="M406.086 251.423C406.284 254.264 403.571 257.539 399.295 257.555C395.468 257.571 392.306 254.73 392.36 251.326C392.414 248.003 395.558 245.194 399.313 245.258C403.427 245.322 406.248 248.372 406.086 251.423Z" fill="#989898"/>
<path d="M103.635 256.399C103.204 255.613 102.809 254.858 102.306 253.943C109.043 253.782 115.529 253.638 122.105 253.477C124.782 257.924 127.387 262.291 130.118 266.834C128.07 267.027 126.255 266.995 124.333 267.027C123.812 266.224 123.309 265.454 122.824 264.667C121.315 262.243 119.787 259.819 118.35 257.362C117.829 256.447 117.254 256.03 116.014 256.094C112.493 256.271 108.972 256.303 105.45 256.399C104.893 256.415 104.3 256.399 103.635 256.399Z" fill="#3E60CD"/>
<path d="M18.3836 320.727C22.3003 320.47 51.4064 320.101 52.6281 320.31C52.6281 330.648 52.6281 340.987 52.6281 351.422C50.4002 351.422 48.2801 351.422 46.1062 351.422C45.6929 350.989 45.8726 350.427 45.8546 349.913C45.7468 342.962 45.657 336.01 45.5672 329.059C45.5312 326.827 45.4953 326.763 43.0698 326.779C35.5238 326.844 27.9958 326.94 20.4498 327.02C19.803 327.02 19.1382 327.02 18.5273 327.02C18.1321 325.88 18.0782 322.718 18.3836 320.727Z" fill="#F0CD53"/>
<path d="M417.477 367.219C417.495 359.112 417.064 351.229 417.136 343.363C418.645 343.09 450.194 343.01 452.171 343.251C452.512 344.439 452.638 365.1 452.261 366.834C440.78 366.962 429.263 367.091 417.477 367.219Z" fill="#4063D4"/>
</svg>
